<mxfile host="Electron" modified="2023-05-09T10:36:43.511Z" agent="Mozilla/5.0 (Windows NT 10.0; Win64; x64) AppleWebKit/537.36 (KHTML, like Gecko) draw.io/21.2.8 Chrome/112.0.5615.165 Electron/24.2.0 Safari/537.36" etag="UV8Bofn67_m2cxFDuDvN" version="21.2.8" type="device" pages="3">
  <diagram name="Main" id="74e2e168-ea6b-b213-b513-2b3c1d86103e">
    <mxGraphModel dx="472" dy="835" grid="1" gridSize="10" guides="1" tooltips="1" connect="1" arrows="1" fold="1" page="1" pageScale="1" pageWidth="850" pageHeight="1100" background="none" math="0" shadow="0">
      <root>
        <mxCell id="0" />
        <mxCell id="1" parent="0" />
        <mxCell id="-pSYvG7pfwUV7KPT6mDL-12" value="" style="verticalLabelPosition=bottom;verticalAlign=top;html=1;shape=hexagon;perimeter=hexagonPerimeter2;arcSize=6;size=0.27;" parent="1" vertex="1">
          <mxGeometry x="160" y="320" width="160" height="40" as="geometry" />
        </mxCell>
        <mxCell id="-pSYvG7pfwUV7KPT6mDL-28" style="edgeStyle=orthogonalEdgeStyle;rounded=0;orthogonalLoop=1;jettySize=auto;html=1;exitX=0.5;exitY=1;exitDx=0;exitDy=0;exitPerimeter=0;entryX=0.5;entryY=0;entryDx=0;entryDy=0;" parent="1" source="-pSYvG7pfwUV7KPT6mDL-1" target="-pSYvG7pfwUV7KPT6mDL-12" edge="1">
          <mxGeometry relative="1" as="geometry" />
        </mxCell>
        <mxCell id="-pSYvG7pfwUV7KPT6mDL-1" value="Start" style="strokeWidth=2;html=1;shape=mxgraph.flowchart.start_2;whiteSpace=wrap;" parent="1" vertex="1">
          <mxGeometry x="200" y="200" width="80" height="40" as="geometry" />
        </mxCell>
        <mxCell id="-pSYvG7pfwUV7KPT6mDL-25" style="edgeStyle=orthogonalEdgeStyle;rounded=0;orthogonalLoop=1;jettySize=auto;html=1;exitX=0.25;exitY=1;exitDx=0;exitDy=0;" parent="1" source="-pSYvG7pfwUV7KPT6mDL-2" target="-pSYvG7pfwUV7KPT6mDL-1" edge="1">
          <mxGeometry relative="1" as="geometry" />
        </mxCell>
        <mxCell id="-pSYvG7pfwUV7KPT6mDL-2" value="File1" style="shape=parallelogram;html=1;strokeWidth=2;perimeter=parallelogramPerimeter;whiteSpace=wrap;rounded=1;arcSize=12;size=0.23;" parent="1" vertex="1">
          <mxGeometry x="140" y="120" width="80" height="40" as="geometry" />
        </mxCell>
        <mxCell id="-pSYvG7pfwUV7KPT6mDL-10" style="edgeStyle=orthogonalEdgeStyle;rounded=0;orthogonalLoop=1;jettySize=auto;html=1;exitX=0.375;exitY=1;exitDx=0;exitDy=0;entryX=0.5;entryY=0;entryDx=0;entryDy=0;" parent="1" source="-pSYvG7pfwUV7KPT6mDL-12" target="-pSYvG7pfwUV7KPT6mDL-6" edge="1">
          <mxGeometry relative="1" as="geometry">
            <mxPoint x="210" y="362" as="sourcePoint" />
          </mxGeometry>
        </mxCell>
        <mxCell id="-pSYvG7pfwUV7KPT6mDL-11" style="edgeStyle=orthogonalEdgeStyle;rounded=0;orthogonalLoop=1;jettySize=auto;html=1;exitX=0.625;exitY=1;exitDx=0;exitDy=0;entryX=0.5;entryY=0;entryDx=0;entryDy=0;" parent="1" source="-pSYvG7pfwUV7KPT6mDL-12" target="-pSYvG7pfwUV7KPT6mDL-7" edge="1">
          <mxGeometry relative="1" as="geometry">
            <mxPoint x="270" y="362" as="sourcePoint" />
          </mxGeometry>
        </mxCell>
        <mxCell id="-pSYvG7pfwUV7KPT6mDL-14" style="edgeStyle=orthogonalEdgeStyle;rounded=0;orthogonalLoop=1;jettySize=auto;html=1;exitX=0.5;exitY=1;exitDx=0;exitDy=0;entryX=0.25;entryY=0;entryDx=0;entryDy=0;" parent="1" source="-pSYvG7pfwUV7KPT6mDL-6" target="-pSYvG7pfwUV7KPT6mDL-13" edge="1">
          <mxGeometry relative="1" as="geometry">
            <Array as="points">
              <mxPoint x="180" y="490" />
              <mxPoint x="200" y="490" />
            </Array>
          </mxGeometry>
        </mxCell>
        <mxCell id="-pSYvG7pfwUV7KPT6mDL-6" value="dict1" style="shape=parallelogram;html=1;strokeWidth=2;perimeter=parallelogramPerimeter;whiteSpace=wrap;rounded=1;arcSize=12;size=0.23;" parent="1" vertex="1">
          <mxGeometry x="140" y="440" width="80" height="40" as="geometry" />
        </mxCell>
        <mxCell id="-pSYvG7pfwUV7KPT6mDL-15" style="edgeStyle=orthogonalEdgeStyle;rounded=0;orthogonalLoop=1;jettySize=auto;html=1;exitX=0.5;exitY=1;exitDx=0;exitDy=0;entryX=0.75;entryY=0;entryDx=0;entryDy=0;" parent="1" source="-pSYvG7pfwUV7KPT6mDL-7" target="-pSYvG7pfwUV7KPT6mDL-13" edge="1">
          <mxGeometry relative="1" as="geometry">
            <Array as="points">
              <mxPoint x="300" y="490" />
              <mxPoint x="280" y="490" />
            </Array>
          </mxGeometry>
        </mxCell>
        <mxCell id="-pSYvG7pfwUV7KPT6mDL-7" value="dict2" style="shape=parallelogram;html=1;strokeWidth=2;perimeter=parallelogramPerimeter;whiteSpace=wrap;rounded=1;arcSize=12;size=0.23;" parent="1" vertex="1">
          <mxGeometry x="260" y="440" width="80" height="40" as="geometry" />
        </mxCell>
        <mxCell id="-pSYvG7pfwUV7KPT6mDL-9" value="file_to_coll" style="text;html=1;align=center;verticalAlign=middle;resizable=0;points=[];autosize=1;strokeColor=none;fillColor=none;" parent="1" vertex="1">
          <mxGeometry x="200" y="330" width="80" height="30" as="geometry" />
        </mxCell>
        <mxCell id="-pSYvG7pfwUV7KPT6mDL-19" style="edgeStyle=orthogonalEdgeStyle;rounded=0;orthogonalLoop=1;jettySize=auto;html=1;exitX=0.5;exitY=1;exitDx=0;exitDy=0;entryX=0.5;entryY=0;entryDx=0;entryDy=0;" parent="1" source="-pSYvG7pfwUV7KPT6mDL-13" target="-pSYvG7pfwUV7KPT6mDL-17" edge="1">
          <mxGeometry relative="1" as="geometry" />
        </mxCell>
        <mxCell id="-pSYvG7pfwUV7KPT6mDL-13" value="" style="rounded=1;whiteSpace=wrap;html=1;absoluteArcSize=1;arcSize=14;strokeWidth=2;" parent="1" vertex="1">
          <mxGeometry x="160" y="520" width="160" height="40" as="geometry" />
        </mxCell>
        <mxCell id="-pSYvG7pfwUV7KPT6mDL-16" value="Enter to the diff generator" style="text;html=1;align=center;verticalAlign=middle;resizable=0;points=[];autosize=1;strokeColor=none;fillColor=none;" parent="1" vertex="1">
          <mxGeometry x="160" y="530" width="160" height="30" as="geometry" />
        </mxCell>
        <mxCell id="-pSYvG7pfwUV7KPT6mDL-21" style="edgeStyle=orthogonalEdgeStyle;rounded=0;orthogonalLoop=1;jettySize=auto;html=1;exitX=0.5;exitY=1;exitDx=0;exitDy=0;entryX=0.5;entryY=0;entryDx=0;entryDy=0;" parent="1" source="-pSYvG7pfwUV7KPT6mDL-17" target="-pSYvG7pfwUV7KPT6mDL-20" edge="1">
          <mxGeometry relative="1" as="geometry" />
        </mxCell>
        <mxCell id="-pSYvG7pfwUV7KPT6mDL-17" value="Result diffed&lt;br&gt;dictionary" style="shape=parallelogram;html=1;strokeWidth=2;perimeter=parallelogramPerimeter;whiteSpace=wrap;rounded=1;arcSize=12;size=0.23;" parent="1" vertex="1">
          <mxGeometry x="160" y="600" width="160" height="40" as="geometry" />
        </mxCell>
        <mxCell id="-pSYvG7pfwUV7KPT6mDL-34" style="edgeStyle=orthogonalEdgeStyle;rounded=0;orthogonalLoop=1;jettySize=auto;html=1;exitX=0.5;exitY=1;exitDx=0;exitDy=0;entryX=0.5;entryY=0;entryDx=0;entryDy=0;entryPerimeter=0;" parent="1" source="-pSYvG7pfwUV7KPT6mDL-20" target="-pSYvG7pfwUV7KPT6mDL-33" edge="1">
          <mxGeometry relative="1" as="geometry" />
        </mxCell>
        <mxCell id="-pSYvG7pfwUV7KPT6mDL-20" value="" style="rounded=1;whiteSpace=wrap;html=1;absoluteArcSize=1;arcSize=14;strokeWidth=2;" parent="1" vertex="1">
          <mxGeometry x="160" y="680" width="160" height="40" as="geometry" />
        </mxCell>
        <mxCell id="-pSYvG7pfwUV7KPT6mDL-22" value="Enter to the dict2str converter&lt;br&gt;Generate formatted string" style="text;html=1;align=center;verticalAlign=middle;resizable=0;points=[];autosize=1;strokeColor=none;fillColor=none;" parent="1" vertex="1">
          <mxGeometry x="150" y="680" width="180" height="40" as="geometry" />
        </mxCell>
        <mxCell id="-pSYvG7pfwUV7KPT6mDL-26" style="edgeStyle=orthogonalEdgeStyle;rounded=0;orthogonalLoop=1;jettySize=auto;html=1;exitX=0.5;exitY=1;exitDx=0;exitDy=0;" parent="1" source="-pSYvG7pfwUV7KPT6mDL-23" edge="1">
          <mxGeometry relative="1" as="geometry">
            <mxPoint x="240" y="202" as="targetPoint" />
          </mxGeometry>
        </mxCell>
        <mxCell id="-pSYvG7pfwUV7KPT6mDL-23" value="File2" style="shape=parallelogram;html=1;strokeWidth=2;perimeter=parallelogramPerimeter;whiteSpace=wrap;rounded=1;arcSize=12;size=0.23;" parent="1" vertex="1">
          <mxGeometry x="200" y="120" width="80" height="40" as="geometry" />
        </mxCell>
        <mxCell id="-pSYvG7pfwUV7KPT6mDL-27" style="edgeStyle=orthogonalEdgeStyle;rounded=0;orthogonalLoop=1;jettySize=auto;html=1;exitX=0.5;exitY=1;exitDx=0;exitDy=0;" parent="1" source="-pSYvG7pfwUV7KPT6mDL-24" edge="1">
          <mxGeometry relative="1" as="geometry">
            <mxPoint x="240" y="202" as="targetPoint" />
          </mxGeometry>
        </mxCell>
        <mxCell id="-pSYvG7pfwUV7KPT6mDL-36" style="edgeStyle=orthogonalEdgeStyle;rounded=0;orthogonalLoop=1;jettySize=auto;html=1;exitX=1;exitY=0.5;exitDx=0;exitDy=0;entryX=1;entryY=0.5;entryDx=0;entryDy=0;" parent="1" source="-pSYvG7pfwUV7KPT6mDL-24" target="-pSYvG7pfwUV7KPT6mDL-20" edge="1">
          <mxGeometry relative="1" as="geometry">
            <Array as="points">
              <mxPoint x="400" y="140" />
              <mxPoint x="400" y="700" />
            </Array>
          </mxGeometry>
        </mxCell>
        <mxCell id="-pSYvG7pfwUV7KPT6mDL-24" value="Format" style="shape=parallelogram;html=1;strokeWidth=2;perimeter=parallelogramPerimeter;whiteSpace=wrap;rounded=1;arcSize=12;size=0.23;" parent="1" vertex="1">
          <mxGeometry x="260" y="120" width="80" height="40" as="geometry" />
        </mxCell>
        <mxCell id="-pSYvG7pfwUV7KPT6mDL-31" value="File1&lt;br&gt;File2" style="text;html=1;align=center;verticalAlign=middle;resizable=0;points=[];autosize=1;strokeColor=none;fillColor=#FFFFFF;" parent="1" vertex="1">
          <mxGeometry x="220" y="260" width="50" height="40" as="geometry" />
        </mxCell>
        <mxCell id="-pSYvG7pfwUV7KPT6mDL-33" value="Return formatted string" style="strokeWidth=2;html=1;shape=mxgraph.flowchart.terminator;whiteSpace=wrap;" parent="1" vertex="1">
          <mxGeometry x="160" y="760" width="160" height="40" as="geometry" />
        </mxCell>
        <mxCell id="-pSYvG7pfwUV7KPT6mDL-37" value="MAIN LOGIC" style="text;html=1;align=center;verticalAlign=middle;resizable=0;points=[];autosize=1;strokeColor=none;fillColor=none;" parent="1" vertex="1">
          <mxGeometry x="210" y="70" width="90" height="30" as="geometry" />
        </mxCell>
        <mxCell id="mdG61WEvBo0gvfqHQEo5-4" style="edgeStyle=orthogonalEdgeStyle;rounded=0;orthogonalLoop=1;jettySize=auto;html=1;exitX=1;exitY=0.5;exitDx=0;exitDy=0;entryX=0;entryY=0.5;entryDx=0;entryDy=0;entryPerimeter=0;endArrow=none;endFill=0;" parent="1" source="mdG61WEvBo0gvfqHQEo5-1" target="mdG61WEvBo0gvfqHQEo5-2" edge="1">
          <mxGeometry relative="1" as="geometry" />
        </mxCell>
        <mxCell id="mdG61WEvBo0gvfqHQEo5-1" value="" style="rounded=0;whiteSpace=wrap;html=1;fillColor=none;strokeWidth=2;dashed=1;" parent="1" vertex="1">
          <mxGeometry x="120" y="500" width="240" height="160" as="geometry" />
        </mxCell>
        <mxCell id="mdG61WEvBo0gvfqHQEo5-2" value="&lt;font style=&quot;font-size: 18px;&quot;&gt;Page difference_gen&lt;/font&gt;" style="verticalLabelPosition=middle;verticalAlign=middle;html=1;strokeWidth=2;shape=mxgraph.arrows2.arrow;dy=0.6;dx=40;notch=0;align=center;labelPosition=center;" parent="1" vertex="1">
          <mxGeometry x="440" y="545" width="320" height="70" as="geometry" />
        </mxCell>
      </root>
    </mxGraphModel>
  </diagram>
  <diagram id="QBkKgrJFo8wHYEBI9G1a" name="difference_gen">
    <mxGraphModel dx="1434" dy="844" grid="1" gridSize="10" guides="1" tooltips="1" connect="1" arrows="1" fold="1" page="1" pageScale="1" pageWidth="827" pageHeight="1169" math="0" shadow="0">
      <root>
        <mxCell id="0" />
        <mxCell id="1" parent="0" />
        <mxCell id="k2jiat65SQzfLQX-yHYQ-1" style="edgeStyle=orthogonalEdgeStyle;rounded=0;orthogonalLoop=1;jettySize=auto;html=1;exitX=0.5;exitY=1;exitDx=0;exitDy=0;exitPerimeter=0;entryX=0.5;entryY=0;entryDx=0;entryDy=0;" parent="1" source="k2jiat65SQzfLQX-yHYQ-2" edge="1">
          <mxGeometry relative="1" as="geometry">
            <mxPoint x="360" y="259" as="targetPoint" />
          </mxGeometry>
        </mxCell>
        <mxCell id="k2jiat65SQzfLQX-yHYQ-2" value="Start" style="strokeWidth=2;html=1;shape=mxgraph.flowchart.start_2;whiteSpace=wrap;" parent="1" vertex="1">
          <mxGeometry x="320" y="179" width="80" height="40" as="geometry" />
        </mxCell>
        <mxCell id="k2jiat65SQzfLQX-yHYQ-3" value="DIFF GENERATOR" style="text;html=1;align=center;verticalAlign=middle;resizable=0;points=[];autosize=1;strokeColor=none;fillColor=none;" parent="1" vertex="1">
          <mxGeometry x="295" y="47" width="130" height="30" as="geometry" />
        </mxCell>
        <mxCell id="k2jiat65SQzfLQX-yHYQ-4" style="edgeStyle=orthogonalEdgeStyle;rounded=0;orthogonalLoop=1;jettySize=auto;html=1;exitX=0.5;exitY=1;exitDx=0;exitDy=0;entryX=0.5;entryY=0;entryDx=0;entryDy=0;" parent="1" source="k2jiat65SQzfLQX-yHYQ-6" target="k2jiat65SQzfLQX-yHYQ-11" edge="1">
          <mxGeometry relative="1" as="geometry" />
        </mxCell>
        <mxCell id="k2jiat65SQzfLQX-yHYQ-5" style="edgeStyle=orthogonalEdgeStyle;rounded=0;orthogonalLoop=1;jettySize=auto;html=1;exitX=0;exitY=0.5;exitDx=0;exitDy=0;entryX=0;entryY=0.5;entryDx=0;entryDy=0;" parent="1" source="k2jiat65SQzfLQX-yHYQ-6" target="k2jiat65SQzfLQX-yHYQ-27" edge="1">
          <mxGeometry relative="1" as="geometry">
            <Array as="points">
              <mxPoint x="160" y="438" />
              <mxPoint x="160" y="979" />
            </Array>
          </mxGeometry>
        </mxCell>
        <mxCell id="k2jiat65SQzfLQX-yHYQ-6" value="dict1" style="shape=parallelogram;html=1;strokeWidth=2;perimeter=parallelogramPerimeter;whiteSpace=wrap;rounded=1;arcSize=12;size=0.23;" parent="1" vertex="1">
          <mxGeometry x="280" y="418" width="80" height="40" as="geometry" />
        </mxCell>
        <mxCell id="k2jiat65SQzfLQX-yHYQ-7" style="edgeStyle=orthogonalEdgeStyle;rounded=0;orthogonalLoop=1;jettySize=auto;html=1;exitX=0.5;exitY=1;exitDx=0;exitDy=0;entryX=0.5;entryY=0;entryDx=0;entryDy=0;" parent="1" source="k2jiat65SQzfLQX-yHYQ-9" target="k2jiat65SQzfLQX-yHYQ-11" edge="1">
          <mxGeometry relative="1" as="geometry" />
        </mxCell>
        <mxCell id="k2jiat65SQzfLQX-yHYQ-8" style="edgeStyle=orthogonalEdgeStyle;rounded=0;orthogonalLoop=1;jettySize=auto;html=1;exitX=1;exitY=0.5;exitDx=0;exitDy=0;entryX=1;entryY=0.5;entryDx=0;entryDy=0;" parent="1" source="k2jiat65SQzfLQX-yHYQ-9" target="k2jiat65SQzfLQX-yHYQ-27" edge="1">
          <mxGeometry relative="1" as="geometry">
            <Array as="points">
              <mxPoint x="560" y="438" />
              <mxPoint x="560" y="979" />
            </Array>
          </mxGeometry>
        </mxCell>
        <mxCell id="k2jiat65SQzfLQX-yHYQ-9" value="dict2" style="shape=parallelogram;html=1;strokeWidth=2;perimeter=parallelogramPerimeter;whiteSpace=wrap;rounded=1;arcSize=12;size=0.23;" parent="1" vertex="1">
          <mxGeometry x="360" y="418" width="80" height="40" as="geometry" />
        </mxCell>
        <mxCell id="k2jiat65SQzfLQX-yHYQ-10" style="edgeStyle=orthogonalEdgeStyle;rounded=0;orthogonalLoop=1;jettySize=auto;html=1;exitX=0.5;exitY=1;exitDx=0;exitDy=0;entryX=0.5;entryY=0;entryDx=0;entryDy=0;" parent="1" source="k2jiat65SQzfLQX-yHYQ-11" target="k2jiat65SQzfLQX-yHYQ-14" edge="1">
          <mxGeometry relative="1" as="geometry" />
        </mxCell>
        <mxCell id="k2jiat65SQzfLQX-yHYQ-11" value="" style="verticalLabelPosition=bottom;verticalAlign=top;html=1;shape=hexagon;perimeter=hexagonPerimeter2;arcSize=6;size=0.27;" parent="1" vertex="1">
          <mxGeometry x="280" y="539" width="160" height="39" as="geometry" />
        </mxCell>
        <mxCell id="k2jiat65SQzfLQX-yHYQ-12" value="Get unique keys list" style="text;html=1;align=center;verticalAlign=middle;resizable=0;points=[];autosize=1;strokeColor=none;fillColor=none;" parent="1" vertex="1">
          <mxGeometry x="295" y="542.5" width="130" height="30" as="geometry" />
        </mxCell>
        <mxCell id="k2jiat65SQzfLQX-yHYQ-13" style="edgeStyle=orthogonalEdgeStyle;rounded=0;orthogonalLoop=1;jettySize=auto;html=1;exitX=0.5;exitY=1;exitDx=0;exitDy=0;entryX=0.5;entryY=0;entryDx=0;entryDy=0;entryPerimeter=0;" parent="1" source="k2jiat65SQzfLQX-yHYQ-14" target="k2jiat65SQzfLQX-yHYQ-16" edge="1">
          <mxGeometry relative="1" as="geometry" />
        </mxCell>
        <mxCell id="k2jiat65SQzfLQX-yHYQ-14" value="keys_list" style="shape=parallelogram;html=1;strokeWidth=2;perimeter=parallelogramPerimeter;whiteSpace=wrap;rounded=1;arcSize=12;size=0.23;" parent="1" vertex="1">
          <mxGeometry x="280" y="618" width="160" height="40" as="geometry" />
        </mxCell>
        <mxCell id="k2jiat65SQzfLQX-yHYQ-15" style="edgeStyle=orthogonalEdgeStyle;rounded=0;orthogonalLoop=1;jettySize=auto;html=1;exitX=0.5;exitY=1;exitDx=0;exitDy=0;exitPerimeter=0;entryX=0.5;entryY=0;entryDx=0;entryDy=0;" parent="1" source="k2jiat65SQzfLQX-yHYQ-16" target="Z8CPG9uUh8Oc9ncI5I8W-1" edge="1">
          <mxGeometry relative="1" as="geometry" />
        </mxCell>
        <mxCell id="k2jiat65SQzfLQX-yHYQ-16" value="Start of loop:&lt;br&gt;for each key in key_list look in both dicts" style="strokeWidth=2;html=1;shape=mxgraph.flowchart.loop_limit;whiteSpace=wrap;" parent="1" vertex="1">
          <mxGeometry x="200" y="698" width="320" height="80" as="geometry" />
        </mxCell>
        <mxCell id="k2jiat65SQzfLQX-yHYQ-17" style="edgeStyle=orthogonalEdgeStyle;rounded=0;orthogonalLoop=1;jettySize=auto;html=1;exitX=0.5;exitY=1;exitDx=0;exitDy=0;entryX=0.5;entryY=0;entryDx=0;entryDy=0;entryPerimeter=0;" parent="1" source="k2jiat65SQzfLQX-yHYQ-18" target="k2jiat65SQzfLQX-yHYQ-2" edge="1">
          <mxGeometry relative="1" as="geometry" />
        </mxCell>
        <mxCell id="k2jiat65SQzfLQX-yHYQ-18" value="dict2" style="shape=parallelogram;html=1;strokeWidth=2;perimeter=parallelogramPerimeter;whiteSpace=wrap;rounded=1;arcSize=12;size=0.23;" parent="1" vertex="1">
          <mxGeometry x="360" y="99" width="80" height="40" as="geometry" />
        </mxCell>
        <mxCell id="k2jiat65SQzfLQX-yHYQ-19" style="edgeStyle=orthogonalEdgeStyle;rounded=0;orthogonalLoop=1;jettySize=auto;html=1;exitX=0.5;exitY=1;exitDx=0;exitDy=0;" parent="1" source="k2jiat65SQzfLQX-yHYQ-20" edge="1">
          <mxGeometry relative="1" as="geometry">
            <mxPoint x="360" y="179" as="targetPoint" />
          </mxGeometry>
        </mxCell>
        <mxCell id="k2jiat65SQzfLQX-yHYQ-20" value="dict1" style="shape=parallelogram;html=1;strokeWidth=2;perimeter=parallelogramPerimeter;whiteSpace=wrap;rounded=1;arcSize=12;size=0.23;" parent="1" vertex="1">
          <mxGeometry x="280" y="99" width="80" height="40" as="geometry" />
        </mxCell>
        <mxCell id="k2jiat65SQzfLQX-yHYQ-21" value="Return&lt;br style=&quot;border-color: var(--border-color);&quot;&gt;resulting_dict = {}" style="strokeWidth=2;html=1;shape=mxgraph.flowchart.terminator;whiteSpace=wrap;" parent="1" vertex="1">
          <mxGeometry x="200" y="1619" width="320" height="40" as="geometry" />
        </mxCell>
        <mxCell id="k2jiat65SQzfLQX-yHYQ-22" style="edgeStyle=orthogonalEdgeStyle;rounded=0;orthogonalLoop=1;jettySize=auto;html=1;exitX=0.5;exitY=1;exitDx=0;exitDy=0;entryX=0.5;entryY=0;entryDx=0;entryDy=0;" parent="1" target="k2jiat65SQzfLQX-yHYQ-25" edge="1">
          <mxGeometry relative="1" as="geometry">
            <mxPoint x="360" y="304" as="sourcePoint" />
          </mxGeometry>
        </mxCell>
        <mxCell id="k2jiat65SQzfLQX-yHYQ-23" style="edgeStyle=orthogonalEdgeStyle;rounded=0;orthogonalLoop=1;jettySize=auto;html=1;exitX=0.25;exitY=1;exitDx=0;exitDy=0;entryX=0.5;entryY=0;entryDx=0;entryDy=0;" parent="1" source="k2jiat65SQzfLQX-yHYQ-25" target="k2jiat65SQzfLQX-yHYQ-6" edge="1">
          <mxGeometry relative="1" as="geometry" />
        </mxCell>
        <mxCell id="k2jiat65SQzfLQX-yHYQ-24" style="edgeStyle=orthogonalEdgeStyle;rounded=0;orthogonalLoop=1;jettySize=auto;html=1;exitX=0.75;exitY=1;exitDx=0;exitDy=0;entryX=0.5;entryY=0;entryDx=0;entryDy=0;" parent="1" source="k2jiat65SQzfLQX-yHYQ-25" target="k2jiat65SQzfLQX-yHYQ-9" edge="1">
          <mxGeometry relative="1" as="geometry" />
        </mxCell>
        <mxCell id="k2jiat65SQzfLQX-yHYQ-25" value="Give input dicts to get_unique" style="rounded=1;whiteSpace=wrap;html=1;strokeWidth=2;" parent="1" vertex="1">
          <mxGeometry x="280" y="334" width="160" height="45" as="geometry" />
        </mxCell>
        <mxCell id="k2jiat65SQzfLQX-yHYQ-26" style="edgeStyle=orthogonalEdgeStyle;rounded=0;orthogonalLoop=1;jettySize=auto;html=1;exitX=0.5;exitY=1;exitDx=0;exitDy=0;entryX=0.5;entryY=0;entryDx=0;entryDy=0;" parent="1" source="k2jiat65SQzfLQX-yHYQ-27" target="k2jiat65SQzfLQX-yHYQ-32" edge="1">
          <mxGeometry relative="1" as="geometry" />
        </mxCell>
        <mxCell id="k2jiat65SQzfLQX-yHYQ-27" value="" style="verticalLabelPosition=bottom;verticalAlign=top;html=1;shape=hexagon;perimeter=hexagonPerimeter2;arcSize=6;size=0.27;" parent="1" vertex="1">
          <mxGeometry x="280" y="939" width="160" height="80" as="geometry" />
        </mxCell>
        <mxCell id="k2jiat65SQzfLQX-yHYQ-28" value="Get new keys and&lt;br&gt;corresponding values" style="text;html=1;align=center;verticalAlign=middle;resizable=0;points=[];autosize=1;strokeColor=none;fillColor=none;" parent="1" vertex="1">
          <mxGeometry x="290" y="959" width="140" height="40" as="geometry" />
        </mxCell>
        <mxCell id="k2jiat65SQzfLQX-yHYQ-29" style="edgeStyle=orthogonalEdgeStyle;rounded=0;orthogonalLoop=1;jettySize=auto;html=1;exitX=0.5;exitY=1;exitDx=0;exitDy=0;exitPerimeter=0;entryX=0.5;entryY=0;entryDx=0;entryDy=0;" parent="1" source="k2jiat65SQzfLQX-yHYQ-30" target="k2jiat65SQzfLQX-yHYQ-35" edge="1">
          <mxGeometry relative="1" as="geometry" />
        </mxCell>
        <mxCell id="k2jiat65SQzfLQX-yHYQ-30" value="Start of loop:&lt;br&gt;for each new_key, value in pairs" style="strokeWidth=2;html=1;shape=mxgraph.flowchart.loop_limit;whiteSpace=wrap;" parent="1" vertex="1">
          <mxGeometry x="240" y="1139" width="240" height="80" as="geometry" />
        </mxCell>
        <mxCell id="k2jiat65SQzfLQX-yHYQ-31" style="edgeStyle=orthogonalEdgeStyle;rounded=0;orthogonalLoop=1;jettySize=auto;html=1;exitX=0.5;exitY=1;exitDx=0;exitDy=0;entryX=0.5;entryY=0;entryDx=0;entryDy=0;entryPerimeter=0;" parent="1" source="k2jiat65SQzfLQX-yHYQ-32" target="k2jiat65SQzfLQX-yHYQ-30" edge="1">
          <mxGeometry relative="1" as="geometry" />
        </mxCell>
        <mxCell id="k2jiat65SQzfLQX-yHYQ-32" value="(new_key, value)&lt;br&gt;(1 or 2)" style="shape=parallelogram;html=1;strokeWidth=2;perimeter=parallelogramPerimeter;whiteSpace=wrap;rounded=1;arcSize=12;size=0.23;" parent="1" vertex="1">
          <mxGeometry x="280" y="1059" width="160" height="40" as="geometry" />
        </mxCell>
        <mxCell id="k2jiat65SQzfLQX-yHYQ-34" style="edgeStyle=orthogonalEdgeStyle;rounded=0;orthogonalLoop=1;jettySize=auto;html=1;exitX=0.5;exitY=1;exitDx=0;exitDy=0;entryX=0.5;entryY=1;entryDx=0;entryDy=0;entryPerimeter=0;" parent="1" source="k2jiat65SQzfLQX-yHYQ-35" target="k2jiat65SQzfLQX-yHYQ-38" edge="1">
          <mxGeometry relative="1" as="geometry" />
        </mxCell>
        <mxCell id="I20K-8DK5fjX4Ht1-J1X-2" style="edgeStyle=orthogonalEdgeStyle;rounded=0;orthogonalLoop=1;jettySize=auto;html=1;exitX=0;exitY=0.5;exitDx=0;exitDy=0;entryX=0;entryY=0.5;entryDx=0;entryDy=0;" parent="1" source="k2jiat65SQzfLQX-yHYQ-35" target="k2jiat65SQzfLQX-yHYQ-36" edge="1">
          <mxGeometry relative="1" as="geometry">
            <Array as="points">
              <mxPoint x="120" y="1280" />
              <mxPoint x="120" y="279" />
            </Array>
          </mxGeometry>
        </mxCell>
        <mxCell id="k2jiat65SQzfLQX-yHYQ-35" value="Add to resulting_dict new_key:value" style="rounded=1;whiteSpace=wrap;html=1;strokeWidth=2;" parent="1" vertex="1">
          <mxGeometry x="280" y="1259" width="160" height="42.5" as="geometry" />
        </mxCell>
        <mxCell id="Z8CPG9uUh8Oc9ncI5I8W-4" style="edgeStyle=orthogonalEdgeStyle;rounded=0;orthogonalLoop=1;jettySize=auto;html=1;exitX=1;exitY=0.5;exitDx=0;exitDy=0;entryX=0.89;entryY=0.11;entryDx=0;entryDy=0;entryPerimeter=0;" parent="1" source="k2jiat65SQzfLQX-yHYQ-36" target="k2jiat65SQzfLQX-yHYQ-21" edge="1">
          <mxGeometry relative="1" as="geometry">
            <Array as="points">
              <mxPoint x="640" y="279" />
              <mxPoint x="640" y="1600" />
              <mxPoint x="485" y="1600" />
              <mxPoint x="485" y="1623" />
            </Array>
          </mxGeometry>
        </mxCell>
        <mxCell id="k2jiat65SQzfLQX-yHYQ-36" value="Create&lt;br&gt;resulting_dict = {}" style="shape=parallelogram;html=1;strokeWidth=2;perimeter=parallelogramPerimeter;whiteSpace=wrap;rounded=1;arcSize=12;size=0.23;" parent="1" vertex="1">
          <mxGeometry x="280" y="259" width="160" height="40" as="geometry" />
        </mxCell>
        <mxCell id="k2jiat65SQzfLQX-yHYQ-37" style="edgeStyle=orthogonalEdgeStyle;rounded=0;orthogonalLoop=1;jettySize=auto;html=1;exitX=0.5;exitY=0;exitDx=0;exitDy=0;exitPerimeter=0;entryX=0.5;entryY=1;entryDx=0;entryDy=0;entryPerimeter=0;" parent="1" source="k2jiat65SQzfLQX-yHYQ-38" target="k2jiat65SQzfLQX-yHYQ-40" edge="1">
          <mxGeometry relative="1" as="geometry" />
        </mxCell>
        <mxCell id="k2jiat65SQzfLQX-yHYQ-38" value="End of loop foreach pairs" style="strokeWidth=2;shape=mxgraph.flowchart.loop_limit;whiteSpace=wrap;rotation=0;labelPosition=center;verticalLabelPosition=middle;align=center;verticalAlign=middle;textDirection=ltr;labelBackgroundColor=none;labelBorderColor=none;html=1;spacing=0;flipV=1;" parent="1" vertex="1">
          <mxGeometry x="240" y="1339" width="240" height="80" as="geometry" />
        </mxCell>
        <mxCell id="k2jiat65SQzfLQX-yHYQ-39" style="edgeStyle=orthogonalEdgeStyle;rounded=0;orthogonalLoop=1;jettySize=auto;html=1;exitX=0.5;exitY=0;exitDx=0;exitDy=0;exitPerimeter=0;entryX=0.5;entryY=0;entryDx=0;entryDy=0;entryPerimeter=0;" parent="1" source="k2jiat65SQzfLQX-yHYQ-40" target="k2jiat65SQzfLQX-yHYQ-21" edge="1">
          <mxGeometry relative="1" as="geometry" />
        </mxCell>
        <mxCell id="k2jiat65SQzfLQX-yHYQ-40" value="End of loop&lt;br&gt;for each key in key_list look in both dicts" style="strokeWidth=2;html=1;shape=mxgraph.flowchart.loop_limit;whiteSpace=wrap;flipV=1;" parent="1" vertex="1">
          <mxGeometry x="200" y="1499" width="320" height="80" as="geometry" />
        </mxCell>
        <mxCell id="g9fVAczTuBaIkAAwvSrm-1" value="" style="rounded=0;whiteSpace=wrap;html=1;fillColor=none;strokeWidth=2;dashed=1;" parent="1" vertex="1">
          <mxGeometry x="240" y="920" width="240" height="200" as="geometry" />
        </mxCell>
        <mxCell id="I20K-8DK5fjX4Ht1-J1X-1" value="&lt;font style=&quot;font-size: 18px;&quot;&gt;Page get_new_kv_pairs&lt;/font&gt;" style="verticalLabelPosition=middle;verticalAlign=middle;html=1;strokeWidth=2;shape=mxgraph.arrows2.arrow;dy=0.6;dx=40;notch=0;align=center;labelPosition=center;" parent="1" vertex="1">
          <mxGeometry x="480" y="980" width="320" height="80" as="geometry" />
        </mxCell>
        <mxCell id="Z8CPG9uUh8Oc9ncI5I8W-3" style="edgeStyle=orthogonalEdgeStyle;rounded=0;orthogonalLoop=1;jettySize=auto;html=1;exitX=0.5;exitY=1;exitDx=0;exitDy=0;entryX=0.5;entryY=0;entryDx=0;entryDy=0;" parent="1" source="Z8CPG9uUh8Oc9ncI5I8W-1" target="k2jiat65SQzfLQX-yHYQ-27" edge="1">
          <mxGeometry relative="1" as="geometry" />
        </mxCell>
        <mxCell id="Z8CPG9uUh8Oc9ncI5I8W-1" value="key from list" style="shape=parallelogram;html=1;strokeWidth=2;perimeter=parallelogramPerimeter;whiteSpace=wrap;rounded=1;arcSize=12;size=0.23;" parent="1" vertex="1">
          <mxGeometry x="280" y="839" width="160" height="40" as="geometry" />
        </mxCell>
      </root>
    </mxGraphModel>
  </diagram>
  <diagram id="dURIFQv4tZCFmZJ0vr_C" name="get_new_kv_pairs">
    <mxGraphModel dx="689" dy="982" grid="1" gridSize="10" guides="1" tooltips="1" connect="1" arrows="1" fold="1" page="1" pageScale="1" pageWidth="827" pageHeight="1169" math="0" shadow="0">
      <root>
        <mxCell id="0" />
        <mxCell id="1" parent="0" />
        <mxCell id="sY-Ge4heOA7i_v3woHVt-4" style="edgeStyle=orthogonalEdgeStyle;rounded=0;orthogonalLoop=1;jettySize=auto;html=1;exitX=1;exitY=0.5;exitDx=0;exitDy=0;exitPerimeter=0;entryX=0;entryY=0.5;entryDx=0;entryDy=0;entryPerimeter=0;" parent="1" source="yucwSmipUt3dTRyYtYbF-6" target="lRqMOXyH4wJwxbgDcvB4-11" edge="1">
          <mxGeometry relative="1" as="geometry">
            <mxPoint x="440" y="1000" as="targetPoint" />
          </mxGeometry>
        </mxCell>
        <mxCell id="lRqMOXyH4wJwxbgDcvB4-3" style="edgeStyle=orthogonalEdgeStyle;rounded=0;orthogonalLoop=1;jettySize=auto;html=1;exitX=0.5;exitY=1;exitDx=0;exitDy=0;exitPerimeter=0;entryX=0;entryY=0.5;entryDx=0;entryDy=0;entryPerimeter=0;" parent="1" source="yucwSmipUt3dTRyYtYbF-6" target="lRqMOXyH4wJwxbgDcvB4-8" edge="1">
          <mxGeometry relative="1" as="geometry">
            <mxPoint x="240" y="1120" as="targetPoint" />
          </mxGeometry>
        </mxCell>
        <mxCell id="yucwSmipUt3dTRyYtYbF-6" value="all(values is dict)?" style="strokeWidth=2;html=1;shape=mxgraph.flowchart.decision;whiteSpace=wrap;" parent="1" vertex="1">
          <mxGeometry x="120" y="960" width="240" height="80" as="geometry" />
        </mxCell>
        <mxCell id="yucwSmipUt3dTRyYtYbF-7" value="&lt;font style=&quot;font-size: 18px;&quot;&gt;&lt;b&gt;True&lt;/b&gt;&lt;/font&gt;" style="text;html=1;align=center;verticalAlign=middle;resizable=0;points=[];autosize=1;strokeColor=none;fillColor=none;" parent="1" vertex="1">
          <mxGeometry x="360" y="800" width="60" height="40" as="geometry" />
        </mxCell>
        <mxCell id="yucwSmipUt3dTRyYtYbF-10" value="&lt;font style=&quot;font-size: 18px;&quot;&gt;&lt;b&gt;False&lt;/b&gt;&lt;/font&gt;" style="text;html=1;align=center;verticalAlign=middle;resizable=0;points=[];autosize=1;strokeColor=none;fillColor=none;" parent="1" vertex="1">
          <mxGeometry x="170" y="879" width="70" height="40" as="geometry" />
        </mxCell>
        <mxCell id="wJwE-Sv0q6v1oMtAGUL9-14" style="edgeStyle=orthogonalEdgeStyle;rounded=0;orthogonalLoop=1;jettySize=auto;html=1;exitX=0.5;exitY=1;exitDx=0;exitDy=0;exitPerimeter=0;entryX=0.5;entryY=0;entryDx=0;entryDy=0;" parent="1" source="wJwE-Sv0q6v1oMtAGUL9-1" target="wJwE-Sv0q6v1oMtAGUL9-11" edge="1">
          <mxGeometry relative="1" as="geometry" />
        </mxCell>
        <mxCell id="wJwE-Sv0q6v1oMtAGUL9-1" value="Start" style="strokeWidth=2;html=1;shape=mxgraph.flowchart.start_2;whiteSpace=wrap;" parent="1" vertex="1">
          <mxGeometry x="120" y="160" width="240" height="40" as="geometry" />
        </mxCell>
        <mxCell id="wJwE-Sv0q6v1oMtAGUL9-9" style="edgeStyle=orthogonalEdgeStyle;rounded=0;orthogonalLoop=1;jettySize=auto;html=1;exitX=0.5;exitY=1;exitDx=0;exitDy=0;entryX=0.5;entryY=0;entryDx=0;entryDy=0;entryPerimeter=0;" parent="1" source="wJwE-Sv0q6v1oMtAGUL9-3" target="wJwE-Sv0q6v1oMtAGUL9-1" edge="1">
          <mxGeometry relative="1" as="geometry" />
        </mxCell>
        <mxCell id="wJwE-Sv0q6v1oMtAGUL9-3" value="dict2" style="shape=parallelogram;html=1;strokeWidth=2;perimeter=parallelogramPerimeter;whiteSpace=wrap;rounded=1;arcSize=12;size=0.23;" parent="1" vertex="1">
          <mxGeometry x="280" y="80" width="80" height="40" as="geometry" />
        </mxCell>
        <mxCell id="wJwE-Sv0q6v1oMtAGUL9-10" style="edgeStyle=orthogonalEdgeStyle;rounded=0;orthogonalLoop=1;jettySize=auto;html=1;exitX=0.5;exitY=1;exitDx=0;exitDy=0;entryX=0.5;entryY=0;entryDx=0;entryDy=0;entryPerimeter=0;" parent="1" source="wJwE-Sv0q6v1oMtAGUL9-5" target="wJwE-Sv0q6v1oMtAGUL9-1" edge="1">
          <mxGeometry relative="1" as="geometry" />
        </mxCell>
        <mxCell id="wJwE-Sv0q6v1oMtAGUL9-5" value="dict1" style="shape=parallelogram;html=1;strokeWidth=2;perimeter=parallelogramPerimeter;whiteSpace=wrap;rounded=1;arcSize=12;size=0.23;" parent="1" vertex="1">
          <mxGeometry x="200" y="80" width="80" height="40" as="geometry" />
        </mxCell>
        <mxCell id="wJwE-Sv0q6v1oMtAGUL9-7" style="edgeStyle=orthogonalEdgeStyle;rounded=0;orthogonalLoop=1;jettySize=auto;html=1;exitX=0.5;exitY=1;exitDx=0;exitDy=0;entryX=0.5;entryY=0;entryDx=0;entryDy=0;entryPerimeter=0;" parent="1" source="wJwE-Sv0q6v1oMtAGUL9-6" target="wJwE-Sv0q6v1oMtAGUL9-1" edge="1">
          <mxGeometry relative="1" as="geometry" />
        </mxCell>
        <mxCell id="wJwE-Sv0q6v1oMtAGUL9-6" value="key" style="shape=parallelogram;html=1;strokeWidth=2;perimeter=parallelogramPerimeter;whiteSpace=wrap;rounded=1;arcSize=12;size=0.23;" parent="1" vertex="1">
          <mxGeometry x="120" y="80" width="80" height="40" as="geometry" />
        </mxCell>
        <mxCell id="wJwE-Sv0q6v1oMtAGUL9-11" value="key0 = &quot;&amp;nbsp; &quot; + key" style="shape=parallelogram;html=1;strokeWidth=2;perimeter=parallelogramPerimeter;whiteSpace=wrap;rounded=1;arcSize=12;size=0.23;" parent="1" vertex="1">
          <mxGeometry x="120" y="240" width="240" height="40" as="geometry" />
        </mxCell>
        <mxCell id="wJwE-Sv0q6v1oMtAGUL9-12" value="key1 = &quot;- &quot; + key" style="shape=parallelogram;html=1;strokeWidth=2;perimeter=parallelogramPerimeter;whiteSpace=wrap;rounded=1;arcSize=12;size=0.23;" parent="1" vertex="1">
          <mxGeometry x="120" y="280" width="240" height="40" as="geometry" />
        </mxCell>
        <mxCell id="A_02NUha-VM_YaieKtI3-2" style="edgeStyle=orthogonalEdgeStyle;rounded=0;orthogonalLoop=1;jettySize=auto;html=1;exitX=0.5;exitY=1;exitDx=0;exitDy=0;entryX=0.5;entryY=0;entryDx=0;entryDy=0;" parent="1" source="wJwE-Sv0q6v1oMtAGUL9-13" target="A_02NUha-VM_YaieKtI3-1" edge="1">
          <mxGeometry relative="1" as="geometry" />
        </mxCell>
        <mxCell id="wJwE-Sv0q6v1oMtAGUL9-13" value="key2 = &quot;+ &quot; + key" style="shape=parallelogram;html=1;strokeWidth=2;perimeter=parallelogramPerimeter;whiteSpace=wrap;rounded=1;arcSize=12;size=0.23;" parent="1" vertex="1">
          <mxGeometry x="120" y="320" width="240" height="40" as="geometry" />
        </mxCell>
        <mxCell id="A_02NUha-VM_YaieKtI3-5" style="edgeStyle=orthogonalEdgeStyle;rounded=0;orthogonalLoop=1;jettySize=auto;html=1;exitX=0.25;exitY=1;exitDx=0;exitDy=0;entryX=0.5;entryY=0;entryDx=0;entryDy=0;" parent="1" source="A_02NUha-VM_YaieKtI3-1" target="A_02NUha-VM_YaieKtI3-3" edge="1">
          <mxGeometry relative="1" as="geometry" />
        </mxCell>
        <mxCell id="A_02NUha-VM_YaieKtI3-6" style="edgeStyle=orthogonalEdgeStyle;rounded=0;orthogonalLoop=1;jettySize=auto;html=1;exitX=0.75;exitY=1;exitDx=0;exitDy=0;entryX=0.5;entryY=0;entryDx=0;entryDy=0;" parent="1" source="A_02NUha-VM_YaieKtI3-1" target="A_02NUha-VM_YaieKtI3-4" edge="1">
          <mxGeometry relative="1" as="geometry" />
        </mxCell>
        <mxCell id="A_02NUha-VM_YaieKtI3-1" value="Get values for key from both dicts&lt;br&gt;value1 = dict1.get(key)&lt;br&gt;value2 = dict2.get(key)" style="rounded=1;whiteSpace=wrap;html=1;strokeWidth=2;" parent="1" vertex="1">
          <mxGeometry x="120" y="440" width="240" height="80" as="geometry" />
        </mxCell>
        <mxCell id="A_02NUha-VM_YaieKtI3-8" style="edgeStyle=orthogonalEdgeStyle;rounded=0;orthogonalLoop=1;jettySize=auto;html=1;exitX=0.5;exitY=1;exitDx=0;exitDy=0;entryX=0.5;entryY=0;entryDx=0;entryDy=0;entryPerimeter=0;" parent="1" source="A_02NUha-VM_YaieKtI3-3" target="lRqMOXyH4wJwxbgDcvB4-5" edge="1">
          <mxGeometry relative="1" as="geometry" />
        </mxCell>
        <mxCell id="A_02NUha-VM_YaieKtI3-3" value="value1" style="shape=parallelogram;html=1;strokeWidth=2;perimeter=parallelogramPerimeter;whiteSpace=wrap;rounded=1;arcSize=12;size=0.23;" parent="1" vertex="1">
          <mxGeometry x="120" y="560" width="120" height="40" as="geometry" />
        </mxCell>
        <mxCell id="A_02NUha-VM_YaieKtI3-9" style="edgeStyle=orthogonalEdgeStyle;rounded=0;orthogonalLoop=1;jettySize=auto;html=1;exitX=0.5;exitY=1;exitDx=0;exitDy=0;entryX=0.5;entryY=0;entryDx=0;entryDy=0;entryPerimeter=0;" parent="1" source="A_02NUha-VM_YaieKtI3-4" target="lRqMOXyH4wJwxbgDcvB4-5" edge="1">
          <mxGeometry relative="1" as="geometry">
            <mxPoint x="240" y="640" as="targetPoint" />
          </mxGeometry>
        </mxCell>
        <mxCell id="A_02NUha-VM_YaieKtI3-4" value="value2" style="shape=parallelogram;html=1;strokeWidth=2;perimeter=parallelogramPerimeter;whiteSpace=wrap;rounded=1;arcSize=12;size=0.23;" parent="1" vertex="1">
          <mxGeometry x="240" y="560" width="120" height="40" as="geometry" />
        </mxCell>
        <mxCell id="A_02NUha-VM_YaieKtI3-12" style="edgeStyle=orthogonalEdgeStyle;rounded=0;orthogonalLoop=1;jettySize=auto;html=1;exitX=0.5;exitY=1;exitDx=0;exitDy=0;exitPerimeter=0;entryX=0.5;entryY=0;entryDx=0;entryDy=0;entryPerimeter=0;" parent="1" source="A_02NUha-VM_YaieKtI3-7" target="yucwSmipUt3dTRyYtYbF-6" edge="1">
          <mxGeometry relative="1" as="geometry" />
        </mxCell>
        <mxCell id="sY-Ge4heOA7i_v3woHVt-2" style="edgeStyle=orthogonalEdgeStyle;rounded=0;orthogonalLoop=1;jettySize=auto;html=1;exitX=1;exitY=0.5;exitDx=0;exitDy=0;exitPerimeter=0;entryX=0;entryY=0.5;entryDx=0;entryDy=0;entryPerimeter=0;" parent="1" source="A_02NUha-VM_YaieKtI3-7" target="sY-Ge4heOA7i_v3woHVt-1" edge="1">
          <mxGeometry relative="1" as="geometry" />
        </mxCell>
        <mxCell id="A_02NUha-VM_YaieKtI3-7" value="value1 == value2" style="strokeWidth=2;html=1;shape=mxgraph.flowchart.decision;whiteSpace=wrap;" parent="1" vertex="1">
          <mxGeometry x="120" y="800" width="240" height="80" as="geometry" />
        </mxCell>
        <mxCell id="sY-Ge4heOA7i_v3woHVt-1" value="Return&lt;br style=&quot;border-color: var(--border-color);&quot;&gt;key0, value1" style="strokeWidth=2;html=1;shape=mxgraph.flowchart.terminator;whiteSpace=wrap;" parent="1" vertex="1">
          <mxGeometry x="440" y="820" width="120" height="40" as="geometry" />
        </mxCell>
        <mxCell id="VgR3ky8KJNdEuF0pJJa7-1" value="&lt;font style=&quot;font-size: 14px;&quot;&gt;Page difference_gen&lt;/font&gt;" style="verticalLabelPosition=middle;verticalAlign=middle;html=1;strokeWidth=2;shape=mxgraph.arrows2.arrow;dy=0.6;dx=40;notch=0;align=center;labelPosition=center;" parent="1" vertex="1">
          <mxGeometry x="640" y="960" width="160" height="80" as="geometry" />
        </mxCell>
        <mxCell id="lRqMOXyH4wJwxbgDcvB4-1" value="&lt;font style=&quot;font-size: 18px;&quot;&gt;&lt;b&gt;True&lt;/b&gt;&lt;/font&gt;" style="text;html=1;align=center;verticalAlign=middle;resizable=0;points=[];autosize=1;strokeColor=none;fillColor=none;" parent="1" vertex="1">
          <mxGeometry x="360" y="960" width="60" height="40" as="geometry" />
        </mxCell>
        <mxCell id="lRqMOXyH4wJwxbgDcvB4-4" value="&lt;font style=&quot;font-size: 18px;&quot;&gt;&lt;b&gt;False&lt;/b&gt;&lt;/font&gt;" style="text;html=1;align=center;verticalAlign=middle;resizable=0;points=[];autosize=1;strokeColor=none;fillColor=none;" parent="1" vertex="1">
          <mxGeometry x="170" y="1040" width="70" height="40" as="geometry" />
        </mxCell>
        <mxCell id="lRqMOXyH4wJwxbgDcvB4-6" style="edgeStyle=orthogonalEdgeStyle;rounded=0;orthogonalLoop=1;jettySize=auto;html=1;exitX=0.5;exitY=1;exitDx=0;exitDy=0;exitPerimeter=0;entryX=0.5;entryY=0;entryDx=0;entryDy=0;entryPerimeter=0;" parent="1" source="lRqMOXyH4wJwxbgDcvB4-5" target="A_02NUha-VM_YaieKtI3-7" edge="1">
          <mxGeometry relative="1" as="geometry" />
        </mxCell>
        <mxCell id="lRqMOXyH4wJwxbgDcvB4-15" style="edgeStyle=orthogonalEdgeStyle;rounded=0;orthogonalLoop=1;jettySize=auto;html=1;exitX=0;exitY=0.5;exitDx=0;exitDy=0;exitPerimeter=0;entryX=0.5;entryY=0;entryDx=0;entryDy=0;entryPerimeter=0;" parent="1" source="lRqMOXyH4wJwxbgDcvB4-5" target="lRqMOXyH4wJwxbgDcvB4-14" edge="1">
          <mxGeometry relative="1" as="geometry">
            <Array as="points">
              <mxPoint x="40" y="680" />
              <mxPoint x="40" y="1160" />
              <mxPoint x="240" y="1160" />
            </Array>
          </mxGeometry>
        </mxCell>
        <mxCell id="lRqMOXyH4wJwxbgDcvB4-5" value="all(key in dict1, key in dict2)" style="strokeWidth=2;html=1;shape=mxgraph.flowchart.decision;whiteSpace=wrap;" parent="1" vertex="1">
          <mxGeometry x="120" y="640" width="240" height="80" as="geometry" />
        </mxCell>
        <mxCell id="lRqMOXyH4wJwxbgDcvB4-7" value="&lt;font style=&quot;font-size: 18px;&quot;&gt;&lt;b&gt;True&lt;/b&gt;&lt;/font&gt;" style="text;html=1;align=center;verticalAlign=middle;resizable=0;points=[];autosize=1;strokeColor=none;fillColor=none;" parent="1" vertex="1">
          <mxGeometry x="240" y="720" width="60" height="40" as="geometry" />
        </mxCell>
        <mxCell id="lRqMOXyH4wJwxbgDcvB4-8" value="Return&lt;br style=&quot;border-color: var(--border-color);&quot;&gt;((key1, value1), (key2, value2))" style="strokeWidth=2;html=1;shape=mxgraph.flowchart.terminator;whiteSpace=wrap;" parent="1" vertex="1">
          <mxGeometry x="440" y="1080" width="240" height="40" as="geometry" />
        </mxCell>
        <mxCell id="lRqMOXyH4wJwxbgDcvB4-12" style="edgeStyle=orthogonalEdgeStyle;rounded=0;orthogonalLoop=1;jettySize=auto;html=1;exitX=1;exitY=0.5;exitDx=0;exitDy=0;exitPerimeter=0;entryX=0;entryY=0.5;entryDx=0;entryDy=0;entryPerimeter=0;" parent="1" source="lRqMOXyH4wJwxbgDcvB4-11" target="VgR3ky8KJNdEuF0pJJa7-1" edge="1">
          <mxGeometry relative="1" as="geometry" />
        </mxCell>
        <mxCell id="lRqMOXyH4wJwxbgDcvB4-11" value="Return key0, diference_gen&lt;br&gt;(value1, value2)" style="strokeWidth=2;html=1;shape=mxgraph.flowchart.terminator;whiteSpace=wrap;" parent="1" vertex="1">
          <mxGeometry x="440" y="980" width="160" height="40" as="geometry" />
        </mxCell>
        <mxCell id="lRqMOXyH4wJwxbgDcvB4-13" value="&lt;font style=&quot;font-size: 18px;&quot;&gt;&lt;b&gt;False&lt;/b&gt;&lt;/font&gt;" style="text;html=1;align=center;verticalAlign=middle;resizable=0;points=[];autosize=1;strokeColor=none;fillColor=none;" parent="1" vertex="1">
          <mxGeometry x="50" y="640" width="70" height="40" as="geometry" />
        </mxCell>
        <mxCell id="lRqMOXyH4wJwxbgDcvB4-17" style="edgeStyle=orthogonalEdgeStyle;rounded=0;orthogonalLoop=1;jettySize=auto;html=1;exitX=1;exitY=0.5;exitDx=0;exitDy=0;exitPerimeter=0;entryX=0;entryY=0.5;entryDx=0;entryDy=0;entryPerimeter=0;" parent="1" source="lRqMOXyH4wJwxbgDcvB4-14" target="lRqMOXyH4wJwxbgDcvB4-16" edge="1">
          <mxGeometry relative="1" as="geometry" />
        </mxCell>
        <mxCell id="lRqMOXyH4wJwxbgDcvB4-20" style="edgeStyle=orthogonalEdgeStyle;rounded=0;orthogonalLoop=1;jettySize=auto;html=1;exitX=0.5;exitY=1;exitDx=0;exitDy=0;exitPerimeter=0;entryX=0;entryY=0.5;entryDx=0;entryDy=0;entryPerimeter=0;" parent="1" source="lRqMOXyH4wJwxbgDcvB4-14" target="lRqMOXyH4wJwxbgDcvB4-19" edge="1">
          <mxGeometry relative="1" as="geometry" />
        </mxCell>
        <mxCell id="lRqMOXyH4wJwxbgDcvB4-14" value="key in dict1" style="strokeWidth=2;html=1;shape=mxgraph.flowchart.decision;whiteSpace=wrap;" parent="1" vertex="1">
          <mxGeometry x="120" y="1200" width="240" height="80" as="geometry" />
        </mxCell>
        <mxCell id="lRqMOXyH4wJwxbgDcvB4-16" value="Return&lt;br style=&quot;border-color: var(--border-color);&quot;&gt;key1, value1" style="strokeWidth=2;html=1;shape=mxgraph.flowchart.terminator;whiteSpace=wrap;" parent="1" vertex="1">
          <mxGeometry x="440" y="1220" width="120" height="40" as="geometry" />
        </mxCell>
        <mxCell id="lRqMOXyH4wJwxbgDcvB4-18" value="&lt;font style=&quot;font-size: 18px;&quot;&gt;&lt;b&gt;True&lt;/b&gt;&lt;/font&gt;" style="text;html=1;align=center;verticalAlign=middle;resizable=0;points=[];autosize=1;strokeColor=none;fillColor=none;" parent="1" vertex="1">
          <mxGeometry x="360" y="1200" width="60" height="40" as="geometry" />
        </mxCell>
        <mxCell id="lRqMOXyH4wJwxbgDcvB4-19" value="Return&lt;br style=&quot;border-color: var(--border-color);&quot;&gt;key2, value2" style="strokeWidth=2;html=1;shape=mxgraph.flowchart.terminator;whiteSpace=wrap;" parent="1" vertex="1">
          <mxGeometry x="440" y="1340" width="120" height="40" as="geometry" />
        </mxCell>
        <mxCell id="lRqMOXyH4wJwxbgDcvB4-21" value="&lt;font style=&quot;font-size: 18px;&quot;&gt;&lt;b&gt;False&lt;/b&gt;&lt;/font&gt;" style="text;html=1;align=center;verticalAlign=middle;resizable=0;points=[];autosize=1;strokeColor=none;fillColor=none;" parent="1" vertex="1">
          <mxGeometry x="170" y="1280" width="70" height="40" as="geometry" />
        </mxCell>
        <mxCell id="5GoUkhcel1EPX0eNlWoQ-1" value="get_new_kv_pairs" style="text;html=1;align=center;verticalAlign=middle;resizable=0;points=[];autosize=1;strokeColor=none;fillColor=none;" parent="1" vertex="1">
          <mxGeometry x="180" y="30" width="120" height="30" as="geometry" />
        </mxCell>
      </root>
    </mxGraphModel>
  </diagram>
</mxfile>
